<?xml version="1.0" encoding="UTF-8"?>
<svg id="Layer_2" data-name="Layer 2" xmlns="http://www.w3.org/2000/svg" width="82.31" height="50.44" viewBox="0 0 82.31 50.44">
  <g id="eye">
    <g id="Layer_87" data-name="Layer 87">
      <g>
        <path d="m41.15.5C23.48.5,8.16,10.54.56,25.22c7.6,14.68,22.92,24.72,40.59,24.72s33-10.04,40.59-24.72C74.15,10.54,58.82.5,41.15.5Zm0,43.36c-10.29,0-18.64-8.35-18.64-18.64S30.86,6.58,41.15,6.58s18.64,8.35,18.64,18.64-8.35,18.64-18.64,18.64Z" fill="#fff" stroke="#231f20" stroke-miterlimit="10"/>
        <path d="m41.15,6.58c-10.29,0-18.64,8.35-18.64,18.64s8.35,18.64,18.64,18.64,18.64-8.35,18.64-18.64S51.45,6.58,41.15,6.58Zm0,28.69c-5.55,0-10.05-4.5-10.05-10.05s4.5-10.05,10.05-10.05,10.05,4.5,10.05,10.05-4.5,10.05-10.05,10.05Z" fill="#fff" stroke="#231f20" stroke-miterlimit="10"/>
      </g>
    </g>
  </g>
</svg>